<svg xmlns="http://www.w3.org/2000/svg" width="256" height="256" viewBox="0 0 256 256">
  <defs>
    <linearGradient id="bg" x1="0" y1="0" x2="1" y2="1">
      <stop offset="0%" stop-color="#7B3FE4"/>
      <stop offset="100%" stop-color="#9E57FF"/>
    </linearGradient>
  </defs>

  <!-- Фон-круг -->
  <circle cx="128" cy="128" r="120" fill="url(#bg)"/>

  <!-- Буквы S и G -->
  <g fill="none" stroke="#FFFFFF" stroke-width="16" stroke-linecap="round" stroke-linejoin="round">
    <!-- S -->
    <path d="M ninety 70
             C 70 70, 60 90, 90 105
             C 120 120, 120 140, 90 155
             C 60 170, 70 190, 100 190" />
    <!-- G -->
    <path d="M 165 85
             C 135 85, 120 110, 120 140
             C 120 170, 140 190, 170 190
             C 195 190, 210 175, 210 155
             M 210 155 L 185 155" />
  </g>

  <!-- Улыбка -->
  <path d="M 90 200 C 128 225, 166 225, 200 200" fill="none" stroke="#FFFFFF" stroke-width="12" stroke-linecap="round"/>
</svg>
